Results
version=1
nRows=22
nColumns=24
inDegrees=yes
endheader
time	pelvis_tilt	pelvis_list	pelvis_rotation	pelvis_tx	pelvis_ty	pelvis_tz	hip_flexion_r	hip_adduction_r	hip_rotation_r	knee_angle_r	ankle_angle_r	subtalar_angle_r	mtp_angle_r	hip_flexion_l	hip_adduction_l	hip_rotation_l	knee_angle_l	ankle_angle_l	subtalar_angle_l	mtp_angle_l	lumbar_extension	lumbar_bending	lumbar_rotation
      0.90883333	     -8.36394421	     -0.76358625	     -4.58657485	     -0.17182198	      0.88710573	      0.35128133	     -4.81321749	      5.68873025	      3.16782575	    -10.66721670	     18.63956761	      5.71737177	      6.64303107	     37.12400038	     -2.15135015	     -8.03842850	    -18.73340101	      2.07218188	     -2.76366063	      2.40285679	      1.22132891	      1.66395904	     10.17917879
      0.91300000	     -8.47204436	     -0.75400737	     -4.70769522	     -0.16597100	      0.88572458	      0.35127707	     -4.82209230	      5.62726454	      3.14527411	    -11.27747317	     18.91899847	      6.02859285	      6.81994173	     37.15895723	     -2.12800520	     -8.03653827	    -18.50896838	      2.13573834	     -2.73013454	      2.33985302	      1.40662134	      1.62819911	     10.26196652
      0.91716667	     -8.58248597	     -0.73670269	     -4.81749480	     -0.16007819	      0.88439025	      0.35126542	     -4.80980800	      5.55852518	      3.11716959	    -11.92745319	     19.17040745	      6.31852670	      7.00238192	     37.18812295	     -2.09416593	     -8.03787506	    -18.37372491	      2.18350262	     -2.73129073	      2.29446500	      1.60654018	      1.58862138	     10.32168311
      0.92133333	     -8.68794894	     -0.71315406	     -4.90906096	     -0.15418014	      0.88310234	      0.35121612	     -4.76390559	      5.47873639	      3.01778602	    -12.65464838	     19.37155789	      6.65696255	      7.25293174	     37.21410029	     -2.04407297	     -8.02873205	    -18.33538178	      2.20601165	     -2.79142355	      2.25476076	      1.78776976	      1.52484460	     10.37803326
      0.92550000	     -8.79488299	     -0.67866679	     -4.99252735	     -0.14825584	      0.88187495	      0.35115697	     -4.69364495	      5.38673209	      2.92574276	    -13.42674012	     19.54226342	      7.00270106	      7.60161017	     37.23200520	     -1.97816843	     -8.00690566	    -18.37158542	      2.19663816	     -2.90966485	      2.22676401	      1.97327568	      1.44022020	     10.41548889
      0.92966667	     -8.91665034	     -0.64248640	     -5.07602605	     -0.14231404	      0.88069003	      0.35111086	     -4.58150723	      5.29684275	      2.86253026	    -14.24973573	     19.65741713	      7.28177201	      7.90628334	     37.25609220	     -1.91645718	     -7.99928301	    -18.47426898	      2.14938971	     -3.03466454	      2.22420125	      2.19656504	      1.36697084	     10.41456884
      0.93383333	     -8.98048069	     -0.57178607	     -5.14457577	     -0.13632508	      0.87966040	      0.35101152	     -4.49734269	      5.15183584	      2.72132181	    -15.13618436	     19.76368354	      7.70461574	      8.68712696	     37.20032435	     -1.79941117	     -7.96517356	    -18.62347768	      2.10754708	     -3.32268491	      2.26377134	      2.33067280	      1.21492270	     10.41949224
      0.93800000	     -9.13172663	     -0.54103017	     -5.20879375	     -0.13036764	      0.87855409	      0.35099006	     -4.30280038	      5.08373660	      2.71834246	    -16.05443053	     19.71769962	      7.79271689	      8.87434361	     37.27433662	     -1.75430202	     -7.99924967	    -18.91663691	      2.00223891	     -3.43028033	      2.28116860	      2.58993354	      1.11927524	     10.35896086
      0.94216667	     -9.25337453	     -0.48555479	     -5.25219111	     -0.12438219	      0.87755603	      0.35087055	     -4.08295897	      4.96352611	      2.57235194	    -17.08127386	     19.68920150	      8.15906797	      9.17432390	     37.29816527	     -1.65494891	     -7.96642361	    -19.22962356	      1.89809039	     -3.68368202	      2.31926041	      2.80670966	      0.99473783	     10.30208695
      0.94633333	     -9.31592745	     -0.42299390	     -5.26550818	     -0.11834431	      0.87675144	      0.35067368	     -3.91488298	      4.82319053	      2.38742723	    -18.10656963	     19.41718063	      8.40125462	     13.92097735	     37.23645580	     -1.51561797	     -7.88631969	    -19.54340747	      1.70142101	     -4.12819321	      3.08887304	      2.95881155	      0.87676635	     10.24635299
      0.95050000	     -9.41264696	     -0.36209064	     -5.29229543	     -0.11232304	      0.87593167	      0.35055751	     -3.65488961	      4.69491004	      2.25045532	    -19.25414765	     19.26447849	      8.69658586	     13.99390579	     37.24584187	     -1.42180317	     -7.92206349	    -19.99435433	      1.65310884	     -4.27509996	      3.11046263	      3.15375578	      0.72501599	     10.13690831
      0.95466667	     -9.49468479	     -0.29289021	     -5.30198194	     -0.10628822	      0.87522534	      0.35037875	     -3.37515328	      4.54760355	      2.08400791	    -20.45481561	     18.99879140	      9.01311850	     14.11835291	     37.22889091	     -1.29856386	     -7.90657696	    -20.45697697	      1.56173673	     -4.55687258	      3.14010381	      3.33233418	      0.56827998	     10.02300542
      0.95883333	     -9.52118248	     -0.20959633	     -5.26852113	     -0.10024095	      0.87466658	      0.35008669	     -3.10732250	      4.36045434	      1.79713143	    -21.73833988	     18.73441822	      9.45853960	     14.54409152	     37.14836687	     -1.12191862	     -7.82405368	    -20.92980827	      1.42412072	     -4.98183360	      3.23375309	      3.43072795	      0.39967302	      9.88142813
      0.96300000	     -9.60908894	     -0.14133327	     -5.27148267	     -0.09421652	      0.87412055	      0.34992471	     -2.73637523	      4.21539204	      1.67245766	    -23.07228013	     18.25706983	      9.67278335	     14.75341972	     37.13951470	     -1.01074978	     -7.81726063	    -21.45947692	      1.40286557	     -5.17009407	      3.27847400	      3.62246061	      0.23299784	      9.74190540
      0.96716667	     -9.57396391	     -0.01929497	     -5.22831105	     -0.08815205	      0.87383473	      0.34954846	     -2.43344968	      3.95089665	      1.32899393	    -24.51291231	     17.82836850	     10.20459290	     16.06057017	     36.95899097	     -0.77312340	     -7.69085689	    -21.90794275	      1.31034718	     -5.70062523	      3.52623862	      3.64389509	      0.03414218	      9.52110729
      0.97133333	     -9.64330868	      0.05027870	     -5.19970729	     -0.08215395	      0.87345191	      0.34932155	     -1.98817307	      3.78621358	      1.14787841	    -25.98004369	     17.12522668	     10.32798961	     20.66315521	     36.95479871	     -0.65888223	     -7.71896688	    -22.51944603	      1.27898052	     -5.87221742	      4.36799136	      3.80893828	     -0.13907695	      9.33782136
      0.97550000	     -9.66802688	      0.10870493	     -5.13703785	     -0.07615081	      0.87319512	      0.34901632	     -1.55188251	      3.61486450	      0.89968034	    -27.51467959	     16.43733988	     10.61218597	     20.73846508	     36.90218610	     -0.52824528	     -7.68110206	    -23.14880624	      1.42208272	     -5.96511065	      4.39060783	      3.91477059	     -0.28271174	      9.19574719
      0.97966667	     -9.63566663	      0.21857380	     -5.07788755	     -0.07015393	      0.87311278	      0.34865591	     -1.11366546	      3.35530971	      0.61002828	    -29.14312134	     15.73116870	     11.03050526	     21.11209263	     36.75509740	     -0.32845705	     -7.61374238	    -23.71250370	      1.53072634	     -6.25143527	      4.45048446	      3.93645578	     -0.50380706	      8.94922039
      0.98383333	     -9.64134535	      0.31043963	     -5.00499958	     -0.06418962	      0.87303043	      0.34830463	     -0.59059921	      3.12042860	      0.32974744	    -30.82755875	     14.89388822	     11.31542094	     21.33769829	     36.66732069	     -0.16380547	     -7.58894741	    -24.32301363	      1.68757341	     -6.33391118	      4.48526909	      4.01982609	     -0.69811428	      8.76364074
      0.98800000	     -9.60019930	      0.42876422	     -4.92803647	     -0.05823680	      0.87308840	      0.34791151	     -0.06839848	      2.83133971	      0.02195427	    -32.57538598	     14.00383630	     11.68191130	     21.66108172	     36.50632160	      0.04038600	     -7.54251514	    -24.89206709	      1.89270702	     -6.46716239	      4.52660447	      4.03478824	     -0.92816056	      8.52964305
      0.99216667	     -9.52622306	      0.54730088	     -4.83957471	     -0.05230181	      0.87327645	      0.34749418	      0.44983177	      2.53132796	     -0.28119779	    -34.33336730	     12.89424662	     11.87999144	     26.15819256	     36.28875486	      0.26125823	     -7.44919268	    -25.42012739	      2.14527958	     -6.65371889	      4.96404999	      3.99952095	     -1.16990599	      8.30593867
      0.99633333	     -9.43442003	      0.67655376	     -4.75218202	     -0.04639520	      0.87353243	      0.34706852	      0.99708922	      2.20109730	     -0.60112092	    -36.16233382	     11.84172901	     12.22618419	     26.20242262	     36.05144800	      0.47513156	     -7.43203332	    -25.95507785	      2.45401667	     -6.64985374	      4.98033623	      3.94340167	     -1.41481694	      8.10344441
